SplineFontDB: 3.0
FontName: GoudyBookletter1911
FullName: Goudy Bookletter 1911
FamilyName: Goudy Bookletter 1911
Weight: Regular
Copyright: Copyright (c) 2009 Barry Schwartz\n\nPermission is hereby granted, free of charge, to any person obtaining a copy\nof this software and associated documentation files (the "Software"), to deal\nin the Software without restriction, including without limitation the rights\nto use, copy, modify, merge, publish, distribute, sublicense, and/or sell\ncopies of the Software, and to permit persons to whom the Software is\nfurnished to do so, subject to the following conditions:\n\nThe above copyright notice and this permission notice shall be included in\nall copies or substantial portions of the Software.\n\nTHE SOFTWARE IS PROVIDED "AS IS", WITHOUT WARRANTY OF ANY KIND, EXPRESS OR\nIMPLIED, INCLUDING BUT NOT LIMITED TO THE WARRANTIES OF MERCHANTABILITY,\nFITNESS FOR A PARTICULAR PURPOSE AND NONINFRINGEMENT. IN NO EVENT SHALL THE\nAUTHORS OR COPYRIGHT HOLDERS BE LIABLE FOR ANY CLAIM, DAMAGES OR OTHER\nLIABILITY, WHETHER IN AN ACTION OF CONTRACT, TORT OR OTHERWISE, ARISING FROM,\nOUT OF OR IN CONNECTION WITH THE SOFTWARE OR THE USE OR OTHER DEALINGS IN\nTHE SOFTWARE.\n
UComments: "Scaling: cut 3200-dpi samples 640 pixels high, then scale them to 130%." 
Version: 001.000
ItalicAngle: 0
UnderlinePosition: -204
UnderlineWidth: 102
Ascent: 1638
Descent: 410
LayerCount: 3
Layer: 0 0 "Back"  1
Layer: 1 0 "Fore"  0
Layer: 2 0 "backup"  1
NeedsXUIDChange: 1
XUID: [1021 658 797806517 11473725]
FSType: 0
OS2Version: 0
OS2_WeightWidthSlopeOnly: 0
OS2_UseTypoMetrics: 1
CreationTime: 1249326201
ModificationTime: 1249468123
OS2TypoAscent: 0
OS2TypoAOffset: 1
OS2TypoDescent: 0
OS2TypoDOffset: 1
OS2TypoLinegap: 184
OS2WinAscent: 0
OS2WinAOffset: 1
OS2WinDescent: 0
OS2WinDOffset: 1
HheadAscent: 0
HheadAOffset: 1
HheadDescent: 0
HheadDOffset: 1
OS2Vendor: 'PfEd'
DEI: 91125

StartChar: a
Encoding: 97 97 0
Width: 971
VWidth: 0
Flags: W
HStem: -41 103<296.094 508.482> -25 133<750.837 858.558> 456 77<394 574> 903 75<286.233 491.91>
VStem: 70 178<109.715 355.328> 574 156<123.706 456 526.87 830.872>
LayerCount: 3
Fore
SplineSet
70 183 m 0xbc
 70 478 334 488 574 533 c 1
 574 664 l 2
 574 882 429 903 382 903 c 0
 225 903 248 709 160 709 c 0
 114 709 80 747 80 793 c 0
 80 875 208 978 423 978 c 0
 592 978 730 893 730 682 c 2
 730 238 l 2
 730 116 804 108 816 108 c 0
 879 108 872 193 909 193 c 0
 925 193 932 180 932 161 c 0
 932 101 859 -25 759 -25 c 0x7c
 620 -25 609 109 609 109 c 1
 609 109 543 -41 340 -41 c 0
 158 -41 70 27 70 183 c 0xbc
248 237 m 0
 248 122 319 62 396 62 c 0xbc
 483 62 574 118 574 227 c 2
 574 456 l 1
 519 453 305 413 275 352 c 0
 257 317 248 281 248 237 c 0
EndSplineSet
EndChar

StartChar: b
Encoding: 98 98 1
Width: 1138
VWidth: 1000
Flags: HMW
HStem: -36 84<340.286 714.919> 856 118<430.349 691.054> 1587 20G<271.5 291>
VStem: 155 151<884.937 1424.8> 910 152<271.279 618.997>
LayerCount: 3
Fore
SplineSet
155 1350 m 0xec
 155 1435 12 1443 12 1491 c 0
 12 1519 62 1528 154 1567 c 0
 204 1589 262 1607 281 1607 c 0
 301 1607 306 1590 306 1557 c 2
 306 830 l 1xec
 306 830 418 974 598 974 c 0
 946 974 1062 674 1062 485 c 0
 1062 221 870 -36 522 -36 c 0
 412 -36 320 -10 261 -10 c 0
 218 -10 182 -34 148 -34 c 0
 129 -34 126 -23 126 -7 c 0xf4
 126 171 155 299 155 1350 c 0xec
286 233 m 2xf4
 286 118 316 48 542 48 c 0
 777 48 910 228 910 421 c 0
 910 679 721 856 523 856 c 0
 344 856 286 720 286 672 c 2
 286 233 l 2xf4
EndSplineSet
Layer: 2
SplineSet
281 1607 m 0
 301 1607 306 1590 306 1557 c 2
 306 830 l 1
 306 830 418 974 598 974 c 0
 946 974 1062 674 1062 485 c 0
 1062 221 870 -36 522 -36 c 0
 412 -36 320 -10 261 -10 c 0
 218 -10 182 -34 148 -34 c 0
 129 -34 126 -23 126 -7 c 0
 126 171 155 299 155 1350 c 0
 155 1442 12 1461 12 1491 c 0
 12 1519 62 1528 154 1567 c 0
 204 1589 262 1607 281 1607 c 0
910 421 m 0
 910 679 721 856 523 856 c 0
 344 856 286 720 286 672 c 2
 286 233 l 2
 286 118 316 48 542 48 c 0
 777 48 910 228 910 421 c 0
EndSplineSet
EndChar

StartChar: c
Encoding: 99 99 2
Width: 951
VWidth: 1000
Flags: HW
HStem: -41 145<391.458 706.833> 870 116<368.821 586.949>
VStem: 40 160<316.617 639.499>
LayerCount: 3
Fore
SplineSet
40 442 m 0
 40 711 291 986 543 986 c 0
 726 986 856 865 856 808 c 0
 856 755 812 721 764 721 c 0
 683 721 594 870 461 870 c 0
 294 870 200 696 200 514 c 0
 200 331 312 104 554 104 c 0
 770 104 863 233 890 233 c 0
 903 233 911 226 911 214 c 0
 911 127 749 -41 499 -41 c 0
 204 -41 40 207 40 442 c 0
EndSplineSet
EndChar

StartChar: d
Encoding: 100 100 3
Width: 1124
VWidth: 1000
Flags: HMW
HStem: -42 21G<800.5 818> -32 144<402.031 668.146> 912 74<339.11 697.911> 1621 20G<906.5 920>
VStem: 29 142<350.798 704.141> 786 142<170.125 854.345 908 1409.91>
LayerCount: 3
Fore
SplineSet
29 487 m 0
 29 738 184 986 526 986 c 0
 686 986 786 908 786 908 c 1
 781 1357 l 2
 781 1393 771 1400 701 1427 c 0
 627 1456 607 1458 607 1482 c 0
 607 1495 620 1503 627 1507 c 0
 860 1621 902 1641 911 1641 c 0
 929 1641 937 1628 937 1610 c 0
 937 1537 931 1324 931 897 c 0
 931 674 928 399 928 292 c 0
 928 185 928 168 972 168 c 2
 1032 168 l 2
 1045 168 1082 166 1082 141 c 0
 1082 123 1063 116 947 52 c 0
 851 -1 829 -42 807 -42 c 0
 794 -42 790 -39 790 -12 c 2
 790 105 l 1
 750 70 l 2
 732 55 646 -32 484 -32 c 0
 192 -32 29 229 29 487 c 0
171 550 m 0
 171 277 378 112 564 112 c 0
 745 112 786 210 786 283 c 2
 786 796 l 2
 786 856 643 912 508 912 c 0
 332 912 171 826 171 550 c 0
EndSplineSet
EndChar

StartChar: e
Encoding: 101 101 4
Width: 934
VWidth: 1000
Flags: W
HStem: -33 146<377.009 684.293> 887 109<305.764 536.036>
VStem: 50 145<406.622 718.532> 664 213<694.273 785.255>
LayerCount: 3
Fore
SplineSet
50 482 m 0
 50 827 282 996 492 996 c 0
 708 996 877 787 877 736 c 0
 877 700 807 675 786 667 c 2
 209 446 l 1
 211 418 246 113 551 113 c 0
 759 113 851 255 890 255 c 0
 898 255 908 250 908 234 c 0
 908 155 720 -33 497 -33 c 0
 308 -33 50 87 50 482 c 0
195 585 m 0
 195 565 196 548 198 534 c 1
 604 688 l 2
 636 700 664 711 664 731 c 0
 664 761 525 887 384 887 c 0
 234 887 195 697 195 585 c 0
EndSplineSet
EndChar

StartChar: f
Encoding: 102 102 5
Width: 620
VWidth: 1000
Flags: HW
HStem: -5 92<352.518 500.646> 854 90<34.0846 196 339 608.992> 1509 115<508.885 747.348>
VStem: 196 141<100.965 849 944 1259.77>
LayerCount: 3
Fore
SplineSet
337 511 m 2
 337 339 l 2
 337 96 345 100 448 87 c 0
 488 82 501 61 501 36 c 0
 501 19 483 -5 435 -5 c 0
 363 -5 337 0 265 0 c 0
 225 0 118 -5 88 -5 c 0
 58 -5 28 8 28 32 c 0
 28 128 195 34 195 182 c 0
 195 506 196 474 196 506 c 2
 196 849 l 1
 62 849 l 2
 47 849 34 849 34 894 c 0
 34 936 47 942 62 942 c 2
 199 942 l 1
 199 994 l 2
 199 1086 209 1266 322 1415 c 0
 411 1533 537 1624 678 1624 c 0
 789 1624 820 1571 820 1532 c 0
 820 1490 785 1459 726 1459 c 0
 664 1459 636 1509 568 1509 c 0
 396 1509 334 1266 334 1009 c 2
 334 944 l 1
 583 944 l 2
 598 944 609 936 609 900 c 0
 609 855 598 854 583 854 c 2
 339 854 l 1
 338 628 337 561 337 511 c 2
EndSplineSet
Layer: 2
SplineSet
496 53 m 4
 496 35 495 -5 459 -5 c 4
 452 -5 379 0 273 0 c 4
 165 0 77 -5 70 -5 c 4
 40 -5 34 17 34 41 c 4
 34 98 108 78 153 93 c 4
 193 106 196 183 196 506 c 6
 196 849 l 5
 62 849 l 6
 47 849 34 849 34 894 c 4
 34 936 47 942 62 942 c 6
 199 942 l 5
 199 994 l 6
 199 1086 209 1266 322 1415 c 4
 411 1533 537 1624 678 1624 c 4
 789 1624 820 1571 820 1532 c 4
 820 1490 785 1459 726 1459 c 4
 664 1459 636 1509 568 1509 c 4
 396 1509 334 1266 334 1009 c 6
 334 942 l 5
 583 942 l 6
 598 942 609 936 609 900 c 4
 609 855 598 849 583 849 c 6
 339 849 l 5
 338 623 337 561 337 511 c 4
 337 480 341 365 341 176 c 4
 341 86 383 91 452 87 c 4
 477 86 496 75 496 53 c 4
EndSplineSet
EndChar

StartChar: g
Encoding: 103 103 6
Width: 1010
VWidth: 1000
Flags: HMW
HStem: -558 106<329.266 746.929> -102 148<244.795 695.668> 237 85<344.357 585.454> 900 74<309.595 528.401> 1000 20G<852.5 897>
VStem: 54 122<-331.761 -143.192> 59 162<468.831 761.606> 94 122<81.3538 199.121> 663 165<434.897 762.117> 826 139<-377.909 -183.019> 946 21G<19 19 21 21>
LayerCount: 3
Fore
SplineSet
54 -288 m 0xfc40
 54 -127 182 -70 182 -70 c 1
 182 -70 94 -12 94 92 c 0xf9
 94 207 248 291 248 291 c 1
 248 291 59 385 59 585 c 0xfa
 59 778 218 974 432 974 c 0
 644 974 671 885 734 885 c 0
 825 885 826 1020 879 1020 c 0
 915 1020 967 979 967 931 c 0
 967 834 814 806 779 806 c 1
 779 792 828 716 828 611 c 0
 828 399 660 237 444 237 c 0
 368 237 343 245 313 245 c 0
 272 245 216 204 216 153 c 0xf9a0
 216 51 335 54 598 46 c 0
 769 41 876 27 937 -94 c 0
 955 -129 965 -170 965 -212 c 0
 965 -338 893 -558 513 -558 c 0
 136 -558 54 -394 54 -288 c 0xfc40
176 -220 m 0
 176 -366 356 -452 568 -452 c 0
 764 -452 826 -349 826 -282 c 0xfc40
 826 -114 605 -133 312 -106 c 0
 297 -105 285 -102 273 -102 c 0
 218 -102 176 -170 176 -220 c 0
221 656 m 0xfa80
 221 501 318 322 453 322 c 0
 594 322 663 417 663 560 c 0
 663 788 534 900 416 900 c 0
 315 900 221 818 221 656 c 0xfa80
EndSplineSet
EndChar

StartChar: h
Encoding: 104 104 7
Width: 1159
VWidth: 1000
Flags: HW
HStem: -5 87<40.364 171.906 646.413 803.421 1006.46 1112.86> 876 105<457.457 707.617> 1620 20G<296 324.5>
VStem: 190 152<96.4667 806.434 855 1409.18> 829 162<103.124 715.115>
LayerCount: 3
Fore
SplineSet
991 218 m 0
 991 125 1017 99 1044 88 c 0
 1066 79 1113 77 1113 36 c 0
 1113 19 1095 -5 1047 -5 c 0
 975 -5 940 0 868 0 c 0
 828 0 741 -5 711 -5 c 0
 681 -5 646 8 646 32 c 0
 646 66 669 77 698 82 c 0
 778 97 829 70 829 302 c 0
 829 650 802 876 568 876 c 0
 496 876 342 818 342 721 c 0
 342 686 335 580 335 369 c 0
 335 258 339 166 340 159 c 0
 362 35 528 124 528 36 c 0
 528 19 510 -5 462 -5 c 0
 398 -5 336 0 263 0 c 0
 230 0 149 -5 100 -5 c 0
 70 -5 40 8 40 32 c 0
 40 73 72 80 91 82 c 0
 170 92 180 108 180 206 c 0
 180 223 190 667 190 851 c 0
 190 1074 185 1246 181 1383 c 0
 180 1414 38 1431 38 1474 c 0
 38 1495 77 1514 120 1539 c 0
 229 1603 284 1640 312 1640 c 0
 337 1640 348 1621 348 1586 c 2
 342 855 l 1
 342 855 459 981 636 981 c 0
 700 981 917 952 970 649 c 0
 985 564 991 367 991 218 c 0
EndSplineSet
EndChar

StartChar: i
Encoding: 105 105 8
Width: 605
VWidth: 1000
Flags: W
HStem: -5 99<401.612 561.574> 976 20G<359.5 383> 1311 174<292.443 446.463>
VStem: 238 151<104.959 767.181> 282 178<1324.86 1474.15>
LayerCount: 3
Fore
SplineSet
318 0 m 0xf0
 243 0 256 -5 111 -5 c 0
 81 -5 51 8 51 32 c 0
 51 144 228 15 233 197 c 2
 233 197 238 341 238 368 c 0
 238 453 237 566 237 714 c 0
 237 751 237 752 90 812 c 0
 78 817 62 824 62 842 c 0
 62 879 104 886 220 930 c 0
 294 958 346 996 373 996 c 0
 393 996 396 988 396 970 c 0
 396 910 389 852 389 368 c 0
 389 117 400 102 450 94 c 0
 523 82 563 86 563 36 c 0
 563 19 545 -5 497 -5 c 0
 425 -5 336 0 318 0 c 0xf0
282 1398 m 0xe8
 282 1441 311 1485 373 1485 c 0
 417 1485 460 1457 460 1401 c 0
 460 1350 416 1311 367 1311 c 0
 311 1311 282 1354 282 1398 c 0xe8
EndSplineSet
EndChar

StartChar: j
Encoding: 106 106 9
Width: 721
VWidth: 1000
Flags: W
HStem: -546 194<68.7526 266.745> 974 20G<468.5 492> 1281 169<402.584 554.715>
VStem: 366 150<-269.984 778.855> 393 173<1292.95 1439.99>
LayerCount: 3
Fore
SplineSet
48 -464 m 0xf0
 48 -381 118 -352 158 -352 c 0
 188 -352 221 -366 252 -366 c 0
 363 -366 366 -212 366 -30 c 0
 366 94 361 152 361 739 c 0
 361 792 201 803 201 853 c 0
 201 884 224 886 340 930 c 0
 414 958 455 994 482 994 c 0
 502 994 511 978 511 960 c 0
 511 -42 516 209 516 -79 c 0
 516 -130 514 -217 474 -270 c 0
 302 -500 232 -546 134 -546 c 0
 78 -546 48 -506 48 -464 c 0xf0
393 1364 m 0xe8
 393 1422 437 1450 481 1450 c 0
 524 1450 566 1426 566 1369 c 0
 566 1317 523 1281 480 1281 c 0
 423 1281 393 1320 393 1364 c 0xe8
EndSplineSet
EndChar

StartChar: k
Encoding: 107 107 10
Width: 1079
VWidth: 1000
Flags: HMW
HStem: -5 82<58.2063 169.473 350.166 507.98 889.208 1017.98> 859 92<768.711 966.559> 1596 20G<293 320.5>
VStem: 175 158<91.3307 378 496 1457.14>
LayerCount: 3
Fore
SplineSet
181 1398 m 2xf4
 181 1454 56 1472 56 1508 c 0
 56 1532 95 1544 108 1548 c 2
 108 1548 279 1616 307 1616 c 0
 334 1616 339 1591 339 1568 c 2
 331 496 l 1
 496 669 626 785 626 830 c 0
 626 891 523 866 523 918 c 0
 523 927 528 951 585 951 c 0
 601 951 631 946 739 946 c 0
 840 946 890 951 908 951 c 0
 943 951 968 947 968 916 c 0xf8
 968 871 929 881 845 859 c 0
 789 844 694 751 620 675 c 2
 514 565 l 1
 740 279 l 1
 906 73 938 87 978 77 c 0
 995 73 1018 61 1018 36 c 0
 1018 19 1000 -5 952 -5 c 0
 916 -5 863 0 773 0 c 0
 757 0 643 -5 610 -5 c 0
 580 -5 550 8 550 32 c 0
 550 102 659 54 659 117 c 0
 659 178 453 421 418 466 c 1
 333 378 l 1
 338 94 322 89 455 78 c 0
 480 76 508 61 508 36 c 0
 508 19 490 -5 442 -5 c 0
 370 -5 330 0 263 0 c 0
 224 0 161 -5 118 -5 c 0
 88 -5 58 8 58 32 c 0
 58 73 90 72 109 77 c 0
 175 94 175 107 175 203 c 2
 181 1398 l 2xf4
EndSplineSet
EndChar

StartChar: l
Encoding: 108 108 11
Width: 531
VWidth: 1000
Flags: HW
HStem: -5 84<350.902 483.831> 1619 20G<287 308.5>
VStem: 181 145<102.478 1403.93>
LayerCount: 3
Fore
SplineSet
253 0 m 0
 236 0 119 -5 86 -5 c 0
 56 -5 26 8 26 32 c 0
 26 118 183 28 183 187 c 2
 181 1352 l 2
 181 1410 35 1435 35 1474 c 0
 35 1492 83 1521 132 1551 c 0
 251 1622 272 1639 302 1639 c 0
 315 1639 324 1613 324 1571 c 2
 327 1083 l 2
 327 987 326 946 326 912 c 0
 326 800 333 890 333 266 c 0
 333 126 336 99 435 79 c 0
 474 71 484 55 484 33 c 0
 484 16 470 -5 422 -5 c 0
 409 -5 317 0 253 0 c 0
EndSplineSet
EndChar

StartChar: m
Encoding: 109 109 12
Width: 1651
VWidth: 1000
Flags: HMW
HStem: -5 87<40.364 175.27 343.04 507.755 894.358 1066.88 1467.69 1612.91> 876 112<431.853 644.082 959.744 1205.7>
VStem: 180 143<99.4124 804.76> 737 149<99.6207 611.759> 1298 149<100.965 748.333>
LayerCount: 3
Fore
SplineSet
1368 0 m 0
 1328 0 1221 -5 1191 -5 c 0
 1161 -5 1131 8 1131 32 c 0
 1131 128 1298 34 1298 182 c 2
 1298 465 l 2
 1298 856 1148 884 1080 884 c 0
 918 884 868 774 868 718 c 0
 868 651 886 476 886 336 c 2
 886 181 l 2
 886 93 917 91 1024 82 c 0
 1049 80 1067 61 1067 36 c 0
 1067 19 1056 -5 998 -5 c 0
 984 -5 861 0 812 0 c 0
 794 0 665 -5 628 -5 c 0
 589 -5 559 8 559 32 c 0
 559 141 737 13 737 204 c 0
 737 217 729 487 723 618 c 0
 719 694 710 782 645 831 c 0
 606 861 575 876 510 876 c 0
 414 876 323 810 323 703 c 2
 323 270 l 2
 323 143 337 105 390 90 c 0
 423 81 508 87 508 36 c 0
 508 19 490 -5 442 -5 c 0
 378 -5 336 0 263 0 c 0
 230 0 149 -5 100 -5 c 0
 70 -5 40 8 40 32 c 0
 40 73 72 77 91 82 c 0
 170 102 180 86 180 196 c 0
 180 213 174 574 174 762 c 0
 174 804 58 837 58 873 c 0
 58 893 109 914 160 938 c 1
 214 968 l 1
 253 992 278 1005 290 1005 c 0
 312 1005 315 984 315 973 c 2
 315 816 l 1
 315 816 402 988 572 988 c 0
 778 988 852 814 852 814 c 1
 852 814 942 1000 1113 1000 c 0
 1155 1000 1201 989 1252 962 c 0
 1386 891 1439 821 1447 486 c 0
 1457 86 1437 104 1560 88 c 0
 1600 83 1613 61 1613 36 c 0
 1613 19 1595 -5 1547 -5 c 0
 1475 -5 1440 0 1368 0 c 0
EndSplineSet
Layer: 2
SplineSet
510 876 m 4
 414 876 328 809 328 703 c 6
 328 147 l 6
 328 80 356 98 458 82 c 4
 480 79 501 62 501 44 c 4
 501 2 477 0 452 -0 c 6
 81 0 l 6
 54 0 40 14 40 44 c 4
 40 120 183 53 182 143 c 6
 174 762 l 6
 174 815.149816116 59 814.3359375 59 868 c 4
 59 893.8953125 267 1001 292 1001 c 4
 310 1001 323 983 323 971 c 6
 323 884 l 6
 323 877 325 870 332 870 c 4
 344 870 449 988 588 988 c 4
 750 988 858 850 858 850 c 5
 858 850 931 996 1108 996 c 4
 1451 996 1451 687 1451 452 c 6
 1451 159 l 6
 1451 32 1609 132 1609 38 c 4
 1609 17 1608 0 1578 0 c 6
 1176 0 l 6
 1143 0 1136 19 1136 43 c 4
 1136 134 1303 29 1303 151 c 6
 1303 465 l 6
 1303 856 1133 884 1080 884 c 4
 918 884 876 780 876 748 c 4
 876 645 884 337 886 181 c 5
 886 9 1058 145 1058 31 c 4
 1058 10 1050 0 1025 0 c 6
 596 0 l 6
 568 0 548 8 548 38 c 4
 548 75 557 78 654 94 c 4
 701 102 737 105 737 204 c 4
 737 217 729 487 723 618 c 4
 719 694 710 782 645 831 c 4
 606 861 575 876 510 876 c 4
EndSplineSet
EndChar

StartChar: n
Encoding: 110 110 13
Width: 1171
VWidth: 1000
Flags: HW
HStem: -5 99<44.2227 181.799 343.134 505.129 672.255 839.087 1000.02 1124.97> 880 119<507.812 737.999>
VStem: 186 147<94.7193 782.395> 844 148<88.9211 771.807>
LayerCount: 3
Fore
SplineSet
341 813 m 1
 348 819 484 999 663 999 c 0
 723 999 789 979 860 924 c 0
 944 859 990 795 990 448 c 0
 990 375 992 301 992 230 c 0
 992 85 1026 91 1057 85 c 0
 1091 79 1127 74 1127 36 c 0
 1127 19 1116 -5 1058 -5 c 0
 1044 -5 971 0 922 0 c 0
 904 0 775 -5 738 -5 c 0
 699 -5 669 8 669 32 c 0
 669 83 727 73 776 80 c 0
 812 85 844 105 844 186 c 0
 844 195 847 326 847 452 c 0
 847 515 844 576 844 620 c 0
 844 804 707 880 590 880 c 0
 457 880 333 783 333 672 c 2
 333 283 l 2
 333 156 337 103 390 88 c 0
 423 79 508 87 508 36 c 0
 508 19 490 -5 442 -5 c 0
 378 -5 336 0 263 0 c 0
 230 0 149 -5 100 -5 c 0
 70 -5 40 8 40 32 c 0
 40 92 137 68 165 94 c 0
 181 109 186 146 186 230 c 0
 186 247 184 554 184 742 c 0
 184 784 43 816 43 859 c 0
 43 888 96 907 124 920 c 0
 233 973 282 1010 300 1010 c 0
 334 1010 341 981 341 897 c 2
 341 813 l 1
EndSplineSet
EndChar

StartChar: o
Encoding: 111 111 14
Width: 1057
VWidth: 0
Flags: HW
HStem: -24 102<380.824 698.705> 897 104<360.044 675.269>
VStem: 38 173<276.523 714.413> 843 155<248.247 706.693>
LayerCount: 3
Fore
SplineSet
526 897 m 0
 312 897 211 747 211 495 c 0
 211 285 323 78 528 78 c 0
 786 78 843 270 843 482 c 0
 843 745 703 897 526 897 c 0
536 1001 m 0
 789 1001 998 840 998 500 c 0
 998 134 795 -24 512 -24 c 0
 222 -24 38 218 38 494 c 0
 38 770 224 1001 536 1001 c 0
EndSplineSet
EndChar

StartChar: p
Encoding: 112 112 15
Width: 1118
VWidth: 1000
Flags: HMWO
HStem: -530 91<22.2668 169.608 357.995 560.23> -9 70<391.357 719.287> 861 129<473.187 706.171>
VStem: 179 143<-250.409 32 107.482 757.424> 907 143<296.569 641.616>
LayerCount: 3
Fore
SplineSet
22 -490 m 0
 22 -463 36 -448 86 -439 c 0
 133 -430 186 -436 186 -301 c 0
 186 -267 182 370 179 704 c 0
 179 716 178 746 150 758 c 0
 68 792 37 803 37 828 c 0
 37 854 88 878 156 922 c 1
 208 957 257 993 284 993 c 0
 295 993 321 992 321 908 c 2
 321 780 l 1
 321 780 424 990 624 990 c 0
 880 990 1050 758 1050 522 c 0
 1050 401 995 197 880 100 c 0
 781 16 659 -9 559 -9 c 0
 455 -9 331 32 331 32 c 1
 339 -328 l 2
 341 -430 403 -419 510 -428 c 0
 535 -430 562 -444 562 -474 c 0
 562 -491 550 -524 492 -524 c 0
 478 -524 384 -521 282 -521 c 0
 229 -521 171 -530 101 -530 c 0
 61 -530 22 -526 22 -490 c 0
570 861 m 0
 473 861 322 811 322 598 c 2
 322 330 l 2
 322 223 325 169 335 140 c 0
 354 83 521 61 583 61 c 0
 751 61 907 211 907 433 c 0
 907 721 704 861 570 861 c 0
EndSplineSet
EndChar

StartChar: q
Encoding: 113 113 16
Width: 565
VWidth: 0
Flags: W
HStem: 606 213<205.285 376.076>
VStem: 184 213<627.285 798.076>
LayerCount: 3
Fore
SplineSet
184 713 m 4
 184 772 232 819 291 819 c 4
 350 819 397 772 397 713 c 4
 397 654 350 606 291 606 c 4
 232 606 184 654 184 713 c 4
EndSplineSet
Validated: 1
EndChar

StartChar: r
Encoding: 114 114 17
Width: 565
VWidth: 0
Flags: W
HStem: 606 213<205.285 376.076>
VStem: 184 213<627.285 798.076>
LayerCount: 3
Fore
SplineSet
184 713 m 4
 184 772 232 819 291 819 c 4
 350 819 397 772 397 713 c 4
 397 654 350 606 291 606 c 4
 232 606 184 654 184 713 c 4
EndSplineSet
Validated: 1
EndChar

StartChar: s
Encoding: 115 115 18
Width: 565
VWidth: 0
Flags: W
HStem: 606 213<205.285 376.076>
VStem: 184 213<627.285 798.076>
LayerCount: 3
Fore
SplineSet
184 713 m 4
 184 772 232 819 291 819 c 4
 350 819 397 772 397 713 c 4
 397 654 350 606 291 606 c 4
 232 606 184 654 184 713 c 4
EndSplineSet
Validated: 1
EndChar

StartChar: t
Encoding: 116 116 19
Width: 565
VWidth: 0
Flags: W
HStem: 606 213<205.285 376.076>
VStem: 184 213<627.285 798.076>
LayerCount: 3
Fore
SplineSet
184 713 m 4
 184 772 232 819 291 819 c 4
 350 819 397 772 397 713 c 4
 397 654 350 606 291 606 c 4
 232 606 184 654 184 713 c 4
EndSplineSet
Validated: 1
EndChar

StartChar: u
Encoding: 117 117 20
Width: 565
VWidth: 0
Flags: W
HStem: 606 213<205.285 376.076>
VStem: 184 213<627.285 798.076>
LayerCount: 3
Fore
SplineSet
184 713 m 4
 184 772 232 819 291 819 c 4
 350 819 397 772 397 713 c 4
 397 654 350 606 291 606 c 4
 232 606 184 654 184 713 c 4
EndSplineSet
Validated: 1
EndChar

StartChar: v
Encoding: 118 118 21
Width: 565
VWidth: 0
Flags: W
HStem: 606 213<205.285 376.076>
VStem: 184 213<627.285 798.076>
LayerCount: 3
Fore
SplineSet
184 713 m 4
 184 772 232 819 291 819 c 4
 350 819 397 772 397 713 c 4
 397 654 350 606 291 606 c 4
 232 606 184 654 184 713 c 4
EndSplineSet
Validated: 1
EndChar

StartChar: w
Encoding: 119 119 22
Width: 565
VWidth: 0
Flags: W
HStem: 606 213<205.285 376.076>
VStem: 184 213<627.285 798.076>
LayerCount: 3
Fore
SplineSet
184 713 m 4
 184 772 232 819 291 819 c 4
 350 819 397 772 397 713 c 4
 397 654 350 606 291 606 c 4
 232 606 184 654 184 713 c 4
EndSplineSet
Validated: 1
EndChar

StartChar: x
Encoding: 120 120 23
Width: 565
VWidth: 0
Flags: W
HStem: 606 213<205.285 376.076>
VStem: 184 213<627.285 798.076>
LayerCount: 3
Fore
SplineSet
184 713 m 4
 184 772 232 819 291 819 c 4
 350 819 397 772 397 713 c 4
 397 654 350 606 291 606 c 4
 232 606 184 654 184 713 c 4
EndSplineSet
Validated: 1
EndChar

StartChar: y
Encoding: 121 121 24
Width: 565
VWidth: 0
Flags: W
HStem: 606 213<205.285 376.076>
VStem: 184 213<627.285 798.076>
LayerCount: 3
Fore
SplineSet
184 713 m 4
 184 772 232 819 291 819 c 4
 350 819 397 772 397 713 c 4
 397 654 350 606 291 606 c 4
 232 606 184 654 184 713 c 4
EndSplineSet
Validated: 1
EndChar

StartChar: z
Encoding: 122 122 25
Width: 565
VWidth: 0
Flags: W
HStem: 606 213<205.285 376.076>
VStem: 184 213<627.285 798.076>
LayerCount: 3
Fore
SplineSet
184 713 m 4
 184 772 232 819 291 819 c 4
 350 819 397 772 397 713 c 4
 397 654 350 606 291 606 c 4
 232 606 184 654 184 713 c 4
EndSplineSet
Validated: 1
EndChar

